<mxfile host="app.diagrams.net" agent="Mozilla/5.0 (Windows NT 10.0; Win64; x64) AppleWebKit/537.36 (KHTML, like Gecko) Chrome/131.0.0.0 Safari/537.36" version="25.0.3">
  <diagram name="페이지-1" id="kuk1HUb8SK_pVRmxf7mS">
    <mxGraphModel dx="1173" dy="745" grid="1" gridSize="10" guides="1" tooltips="1" connect="1" arrows="1" fold="1" page="1" pageScale="1" pageWidth="827" pageHeight="1169" math="0" shadow="0">
      <root>
        <mxCell id="0" />
        <mxCell id="1" parent="0" />
        <mxCell id="i2dgzqlJ0jDTg88t6AkW-1" value="Actor" style="shape=umlActor;verticalLabelPosition=bottom;verticalAlign=top;html=1;outlineConnect=0;" parent="1" vertex="1">
          <mxGeometry x="30" y="30" width="30" height="60" as="geometry" />
        </mxCell>
        <mxCell id="i2dgzqlJ0jDTg88t6AkW-7" value="" style="endArrow=open;endFill=1;endSize=12;html=1;rounded=0;dashed=1;" parent="1" edge="1">
          <mxGeometry width="160" relative="1" as="geometry">
            <mxPoint x="110" y="58.33000000000001" as="sourcePoint" />
            <mxPoint x="270" y="58.33000000000001" as="targetPoint" />
          </mxGeometry>
        </mxCell>
        <mxCell id="i2dgzqlJ0jDTg88t6AkW-8" value="&amp;lt;&amp;lt;include&amp;gt;&amp;gt;" style="edgeLabel;html=1;align=center;verticalAlign=middle;resizable=0;points=[];" parent="i2dgzqlJ0jDTg88t6AkW-7" connectable="0" vertex="1">
          <mxGeometry x="-0.4423" y="-1" relative="1" as="geometry">
            <mxPoint x="25" y="-11" as="offset" />
          </mxGeometry>
        </mxCell>
        <mxCell id="i2dgzqlJ0jDTg88t6AkW-9" value="" style="endArrow=open;endFill=1;endSize=12;html=1;rounded=0;entryX=0;entryY=0.5;entryDx=0;entryDy=0;" parent="1" source="i2dgzqlJ0jDTg88t6AkW-15" target="i2dgzqlJ0jDTg88t6AkW-16" edge="1">
          <mxGeometry width="160" relative="1" as="geometry">
            <mxPoint x="550" y="205" as="sourcePoint" />
            <mxPoint x="680" y="189.29000000000002" as="targetPoint" />
          </mxGeometry>
        </mxCell>
        <mxCell id="i2dgzqlJ0jDTg88t6AkW-10" value="" style="endArrow=open;endFill=1;endSize=12;html=1;rounded=0;dashed=1;" parent="1" edge="1">
          <mxGeometry width="160" relative="1" as="geometry">
            <mxPoint x="110" y="98.33000000000001" as="sourcePoint" />
            <mxPoint x="270" y="98.33000000000001" as="targetPoint" />
          </mxGeometry>
        </mxCell>
        <mxCell id="i2dgzqlJ0jDTg88t6AkW-11" value="&amp;lt;&amp;lt;extend&amp;gt;&amp;gt;" style="edgeLabel;html=1;align=center;verticalAlign=middle;resizable=0;points=[];" parent="i2dgzqlJ0jDTg88t6AkW-10" connectable="0" vertex="1">
          <mxGeometry x="-0.4423" y="-1" relative="1" as="geometry">
            <mxPoint x="25" y="-11" as="offset" />
          </mxGeometry>
        </mxCell>
        <mxCell id="i2dgzqlJ0jDTg88t6AkW-12" value="" style="endArrow=block;endFill=0;endSize=12;html=1;rounded=0;" parent="1" edge="1">
          <mxGeometry width="160" relative="1" as="geometry">
            <mxPoint x="110" y="138.33" as="sourcePoint" />
            <mxPoint x="270" y="138.33" as="targetPoint" />
          </mxGeometry>
        </mxCell>
        <mxCell id="i2dgzqlJ0jDTg88t6AkW-13" value="규칙1.&amp;nbsp;&lt;div&gt;연관 관계(실선 화살표)는&amp;nbsp;&lt;div&gt;액터 -&amp;gt; 유스케이스&amp;nbsp;&lt;/div&gt;&lt;div&gt;또는&lt;/div&gt;&lt;div&gt;유스케이스 -&amp;gt; 액터&amp;nbsp;&lt;/div&gt;&lt;div&gt;형식만 가능하다&lt;/div&gt;&lt;/div&gt;" style="text;html=1;align=center;verticalAlign=middle;resizable=0;points=[];autosize=1;strokeColor=none;fillColor=none;" parent="1" vertex="1">
          <mxGeometry x="550" y="40" width="160" height="100" as="geometry" />
        </mxCell>
        <mxCell id="i2dgzqlJ0jDTg88t6AkW-14" value="Use Case" style="ellipse;whiteSpace=wrap;html=1;" parent="1" vertex="1">
          <mxGeometry x="315" y="30" width="140" height="70" as="geometry" />
        </mxCell>
        <mxCell id="i2dgzqlJ0jDTg88t6AkW-15" value="Actor" style="shape=umlActor;verticalLabelPosition=bottom;verticalAlign=top;html=1;outlineConnect=0;" parent="1" vertex="1">
          <mxGeometry x="500" y="165" width="30" height="60" as="geometry" />
        </mxCell>
        <mxCell id="i2dgzqlJ0jDTg88t6AkW-16" value="Use Case" style="ellipse;whiteSpace=wrap;html=1;" parent="1" vertex="1">
          <mxGeometry x="650" y="160" width="140" height="70" as="geometry" />
        </mxCell>
        <mxCell id="i2dgzqlJ0jDTg88t6AkW-19" value="" style="endArrow=open;endFill=1;endSize=12;html=1;rounded=0;exitX=1;exitY=0.5;exitDx=0;exitDy=0;" parent="1" source="i2dgzqlJ0jDTg88t6AkW-21" target="i2dgzqlJ0jDTg88t6AkW-20" edge="1">
          <mxGeometry width="160" relative="1" as="geometry">
            <mxPoint x="595" y="325" as="sourcePoint" />
            <mxPoint x="715" y="335" as="targetPoint" />
          </mxGeometry>
        </mxCell>
        <mxCell id="i2dgzqlJ0jDTg88t6AkW-20" value="Actor" style="shape=umlActor;verticalLabelPosition=bottom;verticalAlign=top;html=1;outlineConnect=0;" parent="1" vertex="1">
          <mxGeometry x="735" y="290" width="30" height="60" as="geometry" />
        </mxCell>
        <mxCell id="i2dgzqlJ0jDTg88t6AkW-21" value="Use Case" style="ellipse;whiteSpace=wrap;html=1;" parent="1" vertex="1">
          <mxGeometry x="490" y="285" width="140" height="70" as="geometry" />
        </mxCell>
        <mxCell id="i2dgzqlJ0jDTg88t6AkW-22" value="내정보 조회" style="ellipse;whiteSpace=wrap;html=1;" parent="1" vertex="1">
          <mxGeometry x="30" y="300" width="100" height="70" as="geometry" />
        </mxCell>
        <mxCell id="i2dgzqlJ0jDTg88t6AkW-23" value="로그인" style="ellipse;whiteSpace=wrap;html=1;" parent="1" vertex="1">
          <mxGeometry x="330" y="300" width="100" height="70" as="geometry" />
        </mxCell>
        <mxCell id="i2dgzqlJ0jDTg88t6AkW-24" value="규칙2.&amp;nbsp;&lt;div&gt;포함, 확장 관계는&amp;nbsp;&lt;div&gt;유스케이스 끼리만 가능하다!&amp;nbsp;&lt;/div&gt;&lt;/div&gt;" style="text;html=1;align=center;verticalAlign=middle;resizable=0;points=[];autosize=1;strokeColor=none;fillColor=none;" parent="1" vertex="1">
          <mxGeometry x="140" y="240" width="180" height="60" as="geometry" />
        </mxCell>
        <mxCell id="i2dgzqlJ0jDTg88t6AkW-25" value="" style="endArrow=open;endFill=1;endSize=12;html=1;rounded=0;dashed=1;" parent="1" source="i2dgzqlJ0jDTg88t6AkW-22" target="i2dgzqlJ0jDTg88t6AkW-23" edge="1">
          <mxGeometry width="160" relative="1" as="geometry">
            <mxPoint x="160" y="340" as="sourcePoint" />
            <mxPoint x="320" y="340" as="targetPoint" />
          </mxGeometry>
        </mxCell>
        <mxCell id="i2dgzqlJ0jDTg88t6AkW-26" value="&amp;lt;&amp;lt;include&amp;gt;&amp;gt;" style="edgeLabel;html=1;align=center;verticalAlign=middle;resizable=0;points=[];" parent="i2dgzqlJ0jDTg88t6AkW-25" connectable="0" vertex="1">
          <mxGeometry x="-0.4423" y="-1" relative="1" as="geometry">
            <mxPoint x="25" y="-11" as="offset" />
          </mxGeometry>
        </mxCell>
        <mxCell id="i2dgzqlJ0jDTg88t6AkW-27" value="프로필 사진&lt;div&gt;등록&lt;/div&gt;" style="ellipse;whiteSpace=wrap;html=1;" parent="1" vertex="1">
          <mxGeometry x="330" y="380" width="100" height="70" as="geometry" />
        </mxCell>
        <mxCell id="i2dgzqlJ0jDTg88t6AkW-28" value="회원가입" style="ellipse;whiteSpace=wrap;html=1;" parent="1" vertex="1">
          <mxGeometry x="30" y="380" width="100" height="70" as="geometry" />
        </mxCell>
        <mxCell id="i2dgzqlJ0jDTg88t6AkW-29" value="" style="endArrow=open;endFill=1;endSize=12;html=1;rounded=0;dashed=1;" parent="1" source="i2dgzqlJ0jDTg88t6AkW-27" target="i2dgzqlJ0jDTg88t6AkW-28" edge="1">
          <mxGeometry width="160" relative="1" as="geometry">
            <mxPoint x="160" y="340" as="sourcePoint" />
            <mxPoint x="320" y="340" as="targetPoint" />
          </mxGeometry>
        </mxCell>
        <mxCell id="i2dgzqlJ0jDTg88t6AkW-30" value="&amp;lt;&amp;lt;extend&amp;gt;&amp;gt;" style="edgeLabel;html=1;align=center;verticalAlign=middle;resizable=0;points=[];" parent="i2dgzqlJ0jDTg88t6AkW-29" connectable="0" vertex="1">
          <mxGeometry x="-0.4423" y="-1" relative="1" as="geometry">
            <mxPoint x="-44" y="-14" as="offset" />
          </mxGeometry>
        </mxCell>
        <mxCell id="i2dgzqlJ0jDTg88t6AkW-31" value="규칙3.&lt;div&gt;일반화 관계는&lt;/div&gt;&lt;div&gt;액터 끼리, 또는&amp;nbsp;&lt;/div&gt;&lt;div&gt;유스케이스 끼리만 가능하다!&lt;/div&gt;" style="text;html=1;align=center;verticalAlign=middle;resizable=0;points=[];autosize=1;strokeColor=none;fillColor=none;" parent="1" vertex="1">
          <mxGeometry x="339" y="490" width="180" height="70" as="geometry" />
        </mxCell>
        <mxCell id="i2dgzqlJ0jDTg88t6AkW-32" value="제목 검색" style="ellipse;whiteSpace=wrap;html=1;" parent="1" vertex="1">
          <mxGeometry x="29" y="575" width="100" height="70" as="geometry" />
        </mxCell>
        <mxCell id="i2dgzqlJ0jDTg88t6AkW-33" value="작성자 검색" style="ellipse;whiteSpace=wrap;html=1;" parent="1" vertex="1">
          <mxGeometry x="29" y="685" width="100" height="70" as="geometry" />
        </mxCell>
        <mxCell id="i2dgzqlJ0jDTg88t6AkW-34" value="게시글 검색" style="ellipse;whiteSpace=wrap;html=1;" parent="1" vertex="1">
          <mxGeometry x="289" y="635" width="100" height="70" as="geometry" />
        </mxCell>
        <mxCell id="i2dgzqlJ0jDTg88t6AkW-35" value="" style="endArrow=open;endFill=1;endSize=12;html=1;rounded=0;" parent="1" edge="1">
          <mxGeometry width="160" relative="1" as="geometry">
            <mxPoint x="110" y="18.330000000000013" as="sourcePoint" />
            <mxPoint x="270" y="18.330000000000013" as="targetPoint" />
          </mxGeometry>
        </mxCell>
        <mxCell id="i2dgzqlJ0jDTg88t6AkW-36" value="" style="endArrow=block;endFill=0;endSize=12;html=1;rounded=0;" parent="1" source="i2dgzqlJ0jDTg88t6AkW-32" target="i2dgzqlJ0jDTg88t6AkW-34" edge="1">
          <mxGeometry width="160" relative="1" as="geometry">
            <mxPoint x="109" y="655" as="sourcePoint" />
            <mxPoint x="269" y="655" as="targetPoint" />
          </mxGeometry>
        </mxCell>
        <mxCell id="i2dgzqlJ0jDTg88t6AkW-37" value="" style="endArrow=block;endFill=0;endSize=12;html=1;rounded=0;" parent="1" source="i2dgzqlJ0jDTg88t6AkW-62" target="i2dgzqlJ0jDTg88t6AkW-76" edge="1">
          <mxGeometry width="160" relative="1" as="geometry">
            <mxPoint x="53.241864041955274" y="1301.6077579763235" as="sourcePoint" />
            <mxPoint x="216.75634551521057" y="1270.0018566316903" as="targetPoint" />
          </mxGeometry>
        </mxCell>
        <mxCell id="i2dgzqlJ0jDTg88t6AkW-38" value="회원" style="shape=umlActor;verticalLabelPosition=bottom;verticalAlign=top;html=1;" parent="1" vertex="1">
          <mxGeometry x="429" y="570" width="30" height="60" as="geometry" />
        </mxCell>
        <mxCell id="i2dgzqlJ0jDTg88t6AkW-39" value="사용자" style="shape=umlActor;verticalLabelPosition=bottom;verticalAlign=top;html=1;" parent="1" vertex="1">
          <mxGeometry x="589" y="630" width="30" height="60" as="geometry" />
        </mxCell>
        <mxCell id="i2dgzqlJ0jDTg88t6AkW-40" value="비회원" style="shape=umlActor;verticalLabelPosition=bottom;verticalAlign=top;html=1;" parent="1" vertex="1">
          <mxGeometry x="429" y="690" width="30" height="60" as="geometry" />
        </mxCell>
        <mxCell id="i2dgzqlJ0jDTg88t6AkW-44" value="" style="endArrow=block;endFill=0;endSize=12;html=1;rounded=0;" parent="1" source="i2dgzqlJ0jDTg88t6AkW-38" target="i2dgzqlJ0jDTg88t6AkW-39" edge="1">
          <mxGeometry width="160" relative="1" as="geometry">
            <mxPoint x="428.51" y="620.06" as="sourcePoint" />
            <mxPoint x="594.51" y="658.06" as="targetPoint" />
          </mxGeometry>
        </mxCell>
        <mxCell id="i2dgzqlJ0jDTg88t6AkW-45" value="" style="endArrow=block;endFill=0;endSize=12;html=1;rounded=0;" parent="1" source="i2dgzqlJ0jDTg88t6AkW-40" target="i2dgzqlJ0jDTg88t6AkW-39" edge="1">
          <mxGeometry width="160" relative="1" as="geometry">
            <mxPoint x="459" y="690.38" as="sourcePoint" />
            <mxPoint x="589" y="738.38" as="targetPoint" />
          </mxGeometry>
        </mxCell>
        <mxCell id="i2dgzqlJ0jDTg88t6AkW-46" value="공지사항 조회" style="ellipse;whiteSpace=wrap;html=1;" parent="1" vertex="1">
          <mxGeometry x="700" y="625" width="100" height="70" as="geometry" />
        </mxCell>
        <mxCell id="i2dgzqlJ0jDTg88t6AkW-47" value="" style="endArrow=open;endFill=1;endSize=12;html=1;rounded=0;" parent="1" source="i2dgzqlJ0jDTg88t6AkW-39" target="i2dgzqlJ0jDTg88t6AkW-46" edge="1">
          <mxGeometry width="160" relative="1" as="geometry">
            <mxPoint x="629" y="610" as="sourcePoint" />
            <mxPoint x="789" y="610" as="targetPoint" />
          </mxGeometry>
        </mxCell>
        <mxCell id="i2dgzqlJ0jDTg88t6AkW-48" value="비회원" style="shape=umlActor;verticalLabelPosition=bottom;verticalAlign=top;html=1;" parent="1" vertex="1">
          <mxGeometry x="50" y="920" width="30" height="60" as="geometry" />
        </mxCell>
        <mxCell id="i2dgzqlJ0jDTg88t6AkW-49" value="실습1.&lt;div&gt;비회원은 회원가입 시 이메일 인증을 해야한다.&amp;nbsp;&lt;/div&gt;" style="text;html=1;align=left;verticalAlign=middle;resizable=0;points=[];autosize=1;strokeColor=none;fillColor=none;" parent="1" vertex="1">
          <mxGeometry x="60" y="855" width="270" height="40" as="geometry" />
        </mxCell>
        <mxCell id="i2dgzqlJ0jDTg88t6AkW-50" value="회원가입" style="ellipse;whiteSpace=wrap;html=1;" parent="1" vertex="1">
          <mxGeometry x="170" y="915" width="100" height="70" as="geometry" />
        </mxCell>
        <mxCell id="i2dgzqlJ0jDTg88t6AkW-51" value="" style="endArrow=open;endFill=1;endSize=12;html=1;rounded=0;" parent="1" source="i2dgzqlJ0jDTg88t6AkW-48" target="i2dgzqlJ0jDTg88t6AkW-50" edge="1">
          <mxGeometry width="160" relative="1" as="geometry">
            <mxPoint x="100" y="954.4100000000001" as="sourcePoint" />
            <mxPoint x="181" y="954.4100000000001" as="targetPoint" />
          </mxGeometry>
        </mxCell>
        <mxCell id="i2dgzqlJ0jDTg88t6AkW-52" value="이메일 인증" style="ellipse;whiteSpace=wrap;html=1;" parent="1" vertex="1">
          <mxGeometry x="370" y="915" width="100" height="70" as="geometry" />
        </mxCell>
        <mxCell id="i2dgzqlJ0jDTg88t6AkW-57" value="" style="endArrow=open;endFill=1;endSize=12;html=1;rounded=0;dashed=1;" parent="1" source="i2dgzqlJ0jDTg88t6AkW-50" target="i2dgzqlJ0jDTg88t6AkW-52" edge="1">
          <mxGeometry width="160" relative="1" as="geometry">
            <mxPoint x="210" y="1030" as="sourcePoint" />
            <mxPoint x="410" y="1030" as="targetPoint" />
          </mxGeometry>
        </mxCell>
        <mxCell id="i2dgzqlJ0jDTg88t6AkW-58" value="&amp;lt;&amp;lt;include&amp;gt;&amp;gt;" style="edgeLabel;html=1;align=center;verticalAlign=middle;resizable=0;points=[];" parent="i2dgzqlJ0jDTg88t6AkW-57" connectable="0" vertex="1">
          <mxGeometry x="-0.4423" y="-1" relative="1" as="geometry">
            <mxPoint x="25" y="-11" as="offset" />
          </mxGeometry>
        </mxCell>
        <mxCell id="i2dgzqlJ0jDTg88t6AkW-59" value="" style="endArrow=open;endFill=1;endSize=12;html=1;rounded=0;" parent="1" source="i2dgzqlJ0jDTg88t6AkW-52" target="i2dgzqlJ0jDTg88t6AkW-60" edge="1">
          <mxGeometry width="160" relative="1" as="geometry">
            <mxPoint x="470" y="949.58" as="sourcePoint" />
            <mxPoint x="560" y="949.58" as="targetPoint" />
          </mxGeometry>
        </mxCell>
        <mxCell id="i2dgzqlJ0jDTg88t6AkW-60" value="Gmail 서버" style="shape=umlActor;verticalLabelPosition=bottom;verticalAlign=top;html=1;" parent="1" vertex="1">
          <mxGeometry x="560" y="920" width="30" height="60" as="geometry" />
        </mxCell>
        <mxCell id="i2dgzqlJ0jDTg88t6AkW-61" value="실습2.&lt;div&gt;비회원은 회원가입 시 이메일 인증을 해야한다.&amp;nbsp;&lt;/div&gt;&lt;div&gt;회원가입 시 프로필 사진을 등록할 수 있다.&lt;/div&gt;" style="text;html=1;align=left;verticalAlign=middle;resizable=0;points=[];autosize=1;strokeColor=none;fillColor=none;" parent="1" vertex="1">
          <mxGeometry x="60" y="1030" width="270" height="60" as="geometry" />
        </mxCell>
        <mxCell id="i2dgzqlJ0jDTg88t6AkW-62" value="비회원" style="shape=umlActor;verticalLabelPosition=bottom;verticalAlign=top;html=1;" parent="1" vertex="1">
          <mxGeometry x="49" y="1104" width="30" height="60" as="geometry" />
        </mxCell>
        <mxCell id="i2dgzqlJ0jDTg88t6AkW-63" value="회원가입" style="ellipse;whiteSpace=wrap;html=1;" parent="1" vertex="1">
          <mxGeometry x="169" y="1099" width="100" height="70" as="geometry" />
        </mxCell>
        <mxCell id="i2dgzqlJ0jDTg88t6AkW-64" value="" style="endArrow=open;endFill=1;endSize=12;html=1;rounded=0;" parent="1" source="i2dgzqlJ0jDTg88t6AkW-62" target="i2dgzqlJ0jDTg88t6AkW-63" edge="1">
          <mxGeometry width="160" relative="1" as="geometry">
            <mxPoint x="99" y="1138.41" as="sourcePoint" />
            <mxPoint x="180" y="1138.41" as="targetPoint" />
          </mxGeometry>
        </mxCell>
        <mxCell id="i2dgzqlJ0jDTg88t6AkW-65" value="이메일 인증" style="ellipse;whiteSpace=wrap;html=1;" parent="1" vertex="1">
          <mxGeometry x="369" y="1099" width="100" height="70" as="geometry" />
        </mxCell>
        <mxCell id="i2dgzqlJ0jDTg88t6AkW-66" value="" style="endArrow=open;endFill=1;endSize=12;html=1;rounded=0;dashed=1;" parent="1" source="i2dgzqlJ0jDTg88t6AkW-63" target="i2dgzqlJ0jDTg88t6AkW-65" edge="1">
          <mxGeometry width="160" relative="1" as="geometry">
            <mxPoint x="209" y="1214" as="sourcePoint" />
            <mxPoint x="409" y="1214" as="targetPoint" />
          </mxGeometry>
        </mxCell>
        <mxCell id="i2dgzqlJ0jDTg88t6AkW-67" value="&amp;lt;&amp;lt;include&amp;gt;&amp;gt;" style="edgeLabel;html=1;align=center;verticalAlign=middle;resizable=0;points=[];" parent="i2dgzqlJ0jDTg88t6AkW-66" connectable="0" vertex="1">
          <mxGeometry x="-0.4423" y="-1" relative="1" as="geometry">
            <mxPoint x="25" y="-11" as="offset" />
          </mxGeometry>
        </mxCell>
        <mxCell id="i2dgzqlJ0jDTg88t6AkW-68" value="" style="endArrow=open;endFill=1;endSize=12;html=1;rounded=0;" parent="1" source="i2dgzqlJ0jDTg88t6AkW-65" target="i2dgzqlJ0jDTg88t6AkW-69" edge="1">
          <mxGeometry width="160" relative="1" as="geometry">
            <mxPoint x="469" y="1133.58" as="sourcePoint" />
            <mxPoint x="559" y="1133.58" as="targetPoint" />
          </mxGeometry>
        </mxCell>
        <mxCell id="i2dgzqlJ0jDTg88t6AkW-69" value="Gmail 서버" style="shape=umlActor;verticalLabelPosition=bottom;verticalAlign=top;html=1;" parent="1" vertex="1">
          <mxGeometry x="559" y="1104" width="30" height="60" as="geometry" />
        </mxCell>
        <mxCell id="i2dgzqlJ0jDTg88t6AkW-70" value="" style="endArrow=open;endFill=1;endSize=12;html=1;rounded=0;dashed=1;" parent="1" source="i2dgzqlJ0jDTg88t6AkW-72" target="i2dgzqlJ0jDTg88t6AkW-63" edge="1">
          <mxGeometry width="160" relative="1" as="geometry">
            <mxPoint x="269" y="1134" as="sourcePoint" />
            <mxPoint x="330" y="1340" as="targetPoint" />
            <Array as="points" />
          </mxGeometry>
        </mxCell>
        <mxCell id="i2dgzqlJ0jDTg88t6AkW-71" value="&amp;lt;&amp;lt;extends&amp;gt;&amp;gt;" style="edgeLabel;html=1;align=center;verticalAlign=middle;resizable=0;points=[];" parent="i2dgzqlJ0jDTg88t6AkW-70" connectable="0" vertex="1">
          <mxGeometry x="-0.4423" y="-1" relative="1" as="geometry">
            <mxPoint x="25" y="-11" as="offset" />
          </mxGeometry>
        </mxCell>
        <mxCell id="i2dgzqlJ0jDTg88t6AkW-72" value="프로필 사진&lt;div&gt;등록&lt;/div&gt;" style="ellipse;whiteSpace=wrap;html=1;" parent="1" vertex="1">
          <mxGeometry x="240" y="1239.13" width="100" height="70" as="geometry" />
        </mxCell>
        <mxCell id="i2dgzqlJ0jDTg88t6AkW-73" value="공지사항 조회" style="ellipse;whiteSpace=wrap;html=1;" parent="1" vertex="1">
          <mxGeometry x="379" y="1355" width="100" height="70" as="geometry" />
        </mxCell>
        <mxCell id="i2dgzqlJ0jDTg88t6AkW-74" value="회원" style="shape=umlActor;verticalLabelPosition=bottom;verticalAlign=top;html=1;" parent="1" vertex="1">
          <mxGeometry x="49" y="1550" width="30" height="60" as="geometry" />
        </mxCell>
        <mxCell id="i2dgzqlJ0jDTg88t6AkW-76" value="사용자" style="shape=umlActor;verticalLabelPosition=bottom;verticalAlign=top;html=1;" parent="1" vertex="1">
          <mxGeometry x="210" y="1360" width="30" height="60" as="geometry" />
        </mxCell>
        <mxCell id="i2dgzqlJ0jDTg88t6AkW-81" value="" style="endArrow=block;endFill=0;endSize=12;html=1;rounded=0;" parent="1" source="i2dgzqlJ0jDTg88t6AkW-74" target="i2dgzqlJ0jDTg88t6AkW-76" edge="1">
          <mxGeometry width="160" relative="1" as="geometry">
            <mxPoint x="65.32" y="1340" as="sourcePoint" />
            <mxPoint x="120.32" y="1536" as="targetPoint" />
          </mxGeometry>
        </mxCell>
        <mxCell id="i2dgzqlJ0jDTg88t6AkW-83" value="" style="endArrow=open;endFill=1;endSize=12;html=1;rounded=0;" parent="1" source="i2dgzqlJ0jDTg88t6AkW-76" target="i2dgzqlJ0jDTg88t6AkW-73" edge="1">
          <mxGeometry width="160" relative="1" as="geometry">
            <mxPoint x="245" y="1480" as="sourcePoint" />
            <mxPoint x="335" y="1480" as="targetPoint" />
          </mxGeometry>
        </mxCell>
        <mxCell id="i2dgzqlJ0jDTg88t6AkW-85" value="내정보 조회" style="ellipse;whiteSpace=wrap;html=1;" parent="1" vertex="1">
          <mxGeometry x="483.5" y="1580" width="100" height="70" as="geometry" />
        </mxCell>
        <mxCell id="i2dgzqlJ0jDTg88t6AkW-86" value="실습3.&lt;div&gt;비회원과 회원은 모두 공지사항 조회를 할 수 있다.&lt;/div&gt;" style="text;html=1;align=left;verticalAlign=middle;resizable=0;points=[];autosize=1;strokeColor=none;fillColor=none;" parent="1" vertex="1">
          <mxGeometry x="229" y="1315" width="290" height="40" as="geometry" />
        </mxCell>
        <mxCell id="i2dgzqlJ0jDTg88t6AkW-87" value="실습 4.&amp;nbsp;&lt;div&gt;회원은 내 정보를 조회할 수 있다.&lt;/div&gt;&lt;div&gt;회원은 회원 탈퇴 할 수 있다.&amp;nbsp;&lt;/div&gt;&lt;div&gt;회원은 내가 쓴 게시글 조회할 수 있다.&amp;nbsp;&lt;/div&gt;" style="text;html=1;align=left;verticalAlign=middle;resizable=0;points=[];autosize=1;strokeColor=none;fillColor=none;" parent="1" vertex="1">
          <mxGeometry x="184" y="1440" width="230" height="70" as="geometry" />
        </mxCell>
        <mxCell id="i2dgzqlJ0jDTg88t6AkW-88" value="&lt;div&gt;내가 쓴&lt;/div&gt;게시글 조회" style="ellipse;whiteSpace=wrap;html=1;" parent="1" vertex="1">
          <mxGeometry x="459.5" y="1660" width="100" height="70" as="geometry" />
        </mxCell>
        <mxCell id="i2dgzqlJ0jDTg88t6AkW-89" value="회원 탈퇴" style="ellipse;whiteSpace=wrap;html=1;" parent="1" vertex="1">
          <mxGeometry x="394.5" y="1740" width="100" height="70" as="geometry" />
        </mxCell>
        <mxCell id="i2dgzqlJ0jDTg88t6AkW-93" value="마이페이지" style="ellipse;whiteSpace=wrap;html=1;" parent="1" vertex="1">
          <mxGeometry x="304.5" y="1596.09" width="100" height="70" as="geometry" />
        </mxCell>
        <mxCell id="i2dgzqlJ0jDTg88t6AkW-95" value="" style="endArrow=open;endFill=1;endSize=12;html=1;rounded=0;entryX=0;entryY=0.5;entryDx=0;entryDy=0;" parent="1" source="i2dgzqlJ0jDTg88t6AkW-74" target="i2dgzqlJ0jDTg88t6AkW-93" edge="1">
          <mxGeometry width="160" relative="1" as="geometry">
            <mxPoint x="90" y="1556.999310344828" as="sourcePoint" />
            <mxPoint x="201" y="1752.71" as="targetPoint" />
          </mxGeometry>
        </mxCell>
        <mxCell id="i2dgzqlJ0jDTg88t6AkW-97" value="" style="endArrow=open;endFill=1;endSize=12;html=1;rounded=0;dashed=1;entryX=1;entryY=0.5;entryDx=0;entryDy=0;exitX=0;exitY=0.5;exitDx=0;exitDy=0;" parent="1" source="i2dgzqlJ0jDTg88t6AkW-85" target="i2dgzqlJ0jDTg88t6AkW-93" edge="1">
          <mxGeometry width="160" relative="1" as="geometry">
            <mxPoint x="557.81" y="1654.01" as="sourcePoint" />
            <mxPoint x="520.81" y="1580.01" as="targetPoint" />
            <Array as="points" />
          </mxGeometry>
        </mxCell>
        <mxCell id="i2dgzqlJ0jDTg88t6AkW-98" value="&amp;lt;&amp;lt;extends&amp;gt;&amp;gt;" style="edgeLabel;html=1;align=center;verticalAlign=middle;resizable=0;points=[];" parent="i2dgzqlJ0jDTg88t6AkW-97" connectable="0" vertex="1">
          <mxGeometry x="-0.4423" y="-1" relative="1" as="geometry">
            <mxPoint x="-16" y="-11" as="offset" />
          </mxGeometry>
        </mxCell>
        <mxCell id="i2dgzqlJ0jDTg88t6AkW-99" value="" style="endArrow=open;endFill=1;endSize=12;html=1;rounded=0;dashed=1;entryX=1;entryY=1;entryDx=0;entryDy=0;exitX=0;exitY=0.5;exitDx=0;exitDy=0;" parent="1" source="i2dgzqlJ0jDTg88t6AkW-88" target="i2dgzqlJ0jDTg88t6AkW-93" edge="1">
          <mxGeometry width="160" relative="1" as="geometry">
            <mxPoint x="476.1" y="1650.09" as="sourcePoint" />
            <mxPoint x="393.1" y="1660.09" as="targetPoint" />
            <Array as="points" />
          </mxGeometry>
        </mxCell>
        <mxCell id="i2dgzqlJ0jDTg88t6AkW-100" value="&amp;lt;&amp;lt;extends&amp;gt;&amp;gt;" style="edgeLabel;html=1;align=center;verticalAlign=middle;resizable=0;points=[];" parent="i2dgzqlJ0jDTg88t6AkW-99" connectable="0" vertex="1">
          <mxGeometry x="-0.4423" y="-1" relative="1" as="geometry">
            <mxPoint x="-16" y="-11" as="offset" />
          </mxGeometry>
        </mxCell>
        <mxCell id="i2dgzqlJ0jDTg88t6AkW-101" value="" style="endArrow=open;endFill=1;endSize=12;html=1;rounded=0;dashed=1;entryX=0.5;entryY=1;entryDx=0;entryDy=0;exitX=0;exitY=0;exitDx=0;exitDy=0;" parent="1" source="i2dgzqlJ0jDTg88t6AkW-89" target="i2dgzqlJ0jDTg88t6AkW-93" edge="1">
          <mxGeometry width="160" relative="1" as="geometry">
            <mxPoint x="437.5" y="1706.09" as="sourcePoint" />
            <mxPoint x="354.5" y="1716.09" as="targetPoint" />
            <Array as="points" />
          </mxGeometry>
        </mxCell>
        <mxCell id="i2dgzqlJ0jDTg88t6AkW-102" value="&amp;lt;&amp;lt;extends&amp;gt;&amp;gt;" style="edgeLabel;html=1;align=center;verticalAlign=middle;resizable=0;points=[];" parent="i2dgzqlJ0jDTg88t6AkW-101" connectable="0" vertex="1">
          <mxGeometry x="-0.4423" y="-1" relative="1" as="geometry">
            <mxPoint x="-16" y="-11" as="offset" />
          </mxGeometry>
        </mxCell>
        <mxCell id="i2dgzqlJ0jDTg88t6AkW-103" value="자유 게시판&lt;div&gt;목록 조회&lt;/div&gt;" style="ellipse;whiteSpace=wrap;html=1;" parent="1" vertex="1">
          <mxGeometry x="160" y="1660" width="100" height="70" as="geometry" />
        </mxCell>
        <mxCell id="i2dgzqlJ0jDTg88t6AkW-104" value="자유 게시판&amp;nbsp;&lt;div&gt;글 작성&lt;/div&gt;" style="ellipse;whiteSpace=wrap;html=1;" parent="1" vertex="1">
          <mxGeometry x="160" y="1750" width="100" height="70" as="geometry" />
        </mxCell>
        <mxCell id="i2dgzqlJ0jDTg88t6AkW-106" value="자유 게시판&amp;nbsp;&lt;div&gt;글 상세 조회&lt;/div&gt;" style="ellipse;whiteSpace=wrap;html=1;" parent="1" vertex="1">
          <mxGeometry x="160" y="1840" width="100" height="70" as="geometry" />
        </mxCell>
        <mxCell id="i2dgzqlJ0jDTg88t6AkW-107" value="" style="endArrow=open;endFill=1;endSize=12;html=1;rounded=0;entryX=0;entryY=0;entryDx=0;entryDy=0;" parent="1" source="i2dgzqlJ0jDTg88t6AkW-74" target="i2dgzqlJ0jDTg88t6AkW-103" edge="1">
          <mxGeometry width="160" relative="1" as="geometry">
            <mxPoint x="79" y="1636.91" as="sourcePoint" />
            <mxPoint x="339" y="1609.91" as="targetPoint" />
          </mxGeometry>
        </mxCell>
        <mxCell id="i2dgzqlJ0jDTg88t6AkW-108" value="" style="endArrow=open;endFill=1;endSize=12;html=1;rounded=0;entryX=0;entryY=0;entryDx=0;entryDy=0;" parent="1" source="i2dgzqlJ0jDTg88t6AkW-74" target="i2dgzqlJ0jDTg88t6AkW-104" edge="1">
          <mxGeometry width="160" relative="1" as="geometry">
            <mxPoint x="89" y="1602" as="sourcePoint" />
            <mxPoint x="185" y="1680" as="targetPoint" />
          </mxGeometry>
        </mxCell>
        <mxCell id="i2dgzqlJ0jDTg88t6AkW-110" value="" style="endArrow=open;endFill=1;endSize=12;html=1;rounded=0;entryX=0;entryY=0;entryDx=0;entryDy=0;" parent="1" source="i2dgzqlJ0jDTg88t6AkW-74" target="i2dgzqlJ0jDTg88t6AkW-106" edge="1">
          <mxGeometry width="160" relative="1" as="geometry">
            <mxPoint x="60" y="1742" as="sourcePoint" />
            <mxPoint x="156" y="1820" as="targetPoint" />
          </mxGeometry>
        </mxCell>
        <mxCell id="i2dgzqlJ0jDTg88t6AkW-111" value="게시글 삭제" style="ellipse;whiteSpace=wrap;html=1;" parent="1" vertex="1">
          <mxGeometry x="290" y="1790" width="100" height="70" as="geometry" />
        </mxCell>
        <mxCell id="i2dgzqlJ0jDTg88t6AkW-112" value="게시글 수정" style="ellipse;whiteSpace=wrap;html=1;" parent="1" vertex="1">
          <mxGeometry x="320.48" y="1890" width="100" height="70" as="geometry" />
        </mxCell>
        <mxCell id="i2dgzqlJ0jDTg88t6AkW-116" value="" style="endArrow=open;endFill=1;endSize=12;html=1;rounded=0;dashed=1;exitX=-0.013;exitY=0.635;exitDx=0;exitDy=0;entryX=1;entryY=0.5;entryDx=0;entryDy=0;exitPerimeter=0;" parent="1" source="i2dgzqlJ0jDTg88t6AkW-111" target="i2dgzqlJ0jDTg88t6AkW-106" edge="1">
          <mxGeometry width="160" relative="1" as="geometry">
            <mxPoint x="317.65999999999997" y="1903.91" as="sourcePoint" />
            <mxPoint x="263" y="1870" as="targetPoint" />
            <Array as="points" />
          </mxGeometry>
        </mxCell>
        <mxCell id="i2dgzqlJ0jDTg88t6AkW-117" value="&amp;lt;&amp;lt;extends&amp;gt;&amp;gt;" style="edgeLabel;html=1;align=center;verticalAlign=middle;resizable=0;points=[];" parent="i2dgzqlJ0jDTg88t6AkW-116" connectable="0" vertex="1">
          <mxGeometry x="-0.4423" y="-1" relative="1" as="geometry">
            <mxPoint x="-16" y="-11" as="offset" />
          </mxGeometry>
        </mxCell>
        <mxCell id="i2dgzqlJ0jDTg88t6AkW-118" value="" style="endArrow=open;endFill=1;endSize=12;html=1;rounded=0;dashed=1;exitX=0.021;exitY=0.424;exitDx=0;exitDy=0;exitPerimeter=0;entryX=0.9;entryY=0.857;entryDx=0;entryDy=0;entryPerimeter=0;" parent="1" source="i2dgzqlJ0jDTg88t6AkW-112" target="i2dgzqlJ0jDTg88t6AkW-106" edge="1">
          <mxGeometry width="160" relative="1" as="geometry">
            <mxPoint x="319.48" y="1834" as="sourcePoint" />
            <mxPoint x="279.99575217748384" y="1896.444524047537" as="targetPoint" />
            <Array as="points" />
          </mxGeometry>
        </mxCell>
        <mxCell id="i2dgzqlJ0jDTg88t6AkW-119" value="&amp;lt;&amp;lt;extends&amp;gt;&amp;gt;" style="edgeLabel;html=1;align=center;verticalAlign=middle;resizable=0;points=[];" parent="i2dgzqlJ0jDTg88t6AkW-118" connectable="0" vertex="1">
          <mxGeometry x="-0.4423" y="-1" relative="1" as="geometry">
            <mxPoint x="-4" y="-13" as="offset" />
          </mxGeometry>
        </mxCell>
        <mxCell id="i2dgzqlJ0jDTg88t6AkW-122" value="로그인" style="ellipse;whiteSpace=wrap;html=1;" parent="1" vertex="1">
          <mxGeometry x="580" y="1460" width="100" height="70" as="geometry" />
        </mxCell>
        <mxCell id="i2dgzqlJ0jDTg88t6AkW-123" value="" style="endArrow=open;endFill=1;endSize=12;html=1;rounded=0;" parent="1" source="i2dgzqlJ0jDTg88t6AkW-74" target="i2dgzqlJ0jDTg88t6AkW-122" edge="1">
          <mxGeometry width="160" relative="1" as="geometry">
            <mxPoint x="41.3" y="1700" as="sourcePoint" />
            <mxPoint x="140.3" y="1940" as="targetPoint" />
          </mxGeometry>
        </mxCell>
        <mxCell id="i2dgzqlJ0jDTg88t6AkW-124" value="* 상황 별 특수사항&lt;div&gt;&amp;nbsp; &amp;nbsp;- 로그인 유스케이스&lt;/div&gt;&lt;div&gt;&lt;br&gt;&lt;/div&gt;&lt;div&gt;-&amp;gt; &#39;로그인을 해야만 마이페이지 조회가 가능하다&#39;&amp;nbsp;&lt;/div&gt;&lt;div&gt;&amp;nbsp; &amp;nbsp; 일 경우, 정의서에 기입하고 다이어그램에선&amp;nbsp;&lt;/div&gt;&lt;div&gt;&amp;nbsp; &amp;nbsp; 스킵 가능&lt;/div&gt;" style="text;html=1;align=left;verticalAlign=middle;resizable=0;points=[];autosize=1;strokeColor=none;fillColor=none;" parent="1" vertex="1">
          <mxGeometry x="619" y="1555" width="290" height="100" as="geometry" />
        </mxCell>
      </root>
    </mxGraphModel>
  </diagram>
</mxfile>
